<svg width="60" height="60" viewBox="0 0 60 60" fill="none" xmlns="http://www.w3.org/2000/svg">
<path d="M46.2094 5.32501C45.9375 2.97188 40.3125 2.69063 37.1156 2.69063C33.3242 2.5892 29.574 3.49843 26.25 5.32501C24.6074 6.2415 23.1838 7.50444 22.0781 9.02619C20.9724 10.5479 20.211 12.2921 19.8469 14.1375C19.2844 16.6125 19.9594 23.7938 19.9594 23.9625C18.4027 24.1297 16.8375 24.2049 15.2719 24.1875C13.9875 24.2438 13.7063 24.8063 13.5938 25.125C13.4813 25.4438 14.1563 34.8375 14.1563 34.8375L14.5406 38.2031C15.2719 38.5969 18.8719 38.4281 19.4813 38.5406C20.0906 38.6531 20.325 39.4781 20.4188 41.8594C20.5125 44.2406 20.8125 53.25 20.8688 55.1063C20.925 56.9625 21.8063 56.9813 23.7938 56.9813C25.7813 56.9813 33.6094 57.2625 34.1063 57.2625C34.6031 57.2625 35.0438 56.7 35.0438 54.9656C35.0438 53.2313 35.6063 38.5688 35.6625 38.2313C35.7188 37.8938 36.9 38.2313 37.9125 38.2313C38.925 38.2313 43.7438 37.8938 44.5875 37.7813C45.4313 37.6688 45.7688 28.9125 45.7688 26.0531C45.7688 23.1938 43.8938 23.0719 42.7406 23.0156C41.5875 22.9594 35.9438 23.1844 35.6063 22.9594C35.2688 22.7344 36.5625 18.4031 38.4375 17.5125C40.3125 16.6219 44.8406 17.1188 45.4031 17.2313C45.9656 17.3438 46.3406 16.05 46.4156 15.0375C46.4906 14.025 46.4906 7.6875 46.2094 5.32501ZM42.1875 24.1031C42.6619 24.4477 43.0687 24.8767 43.3875 25.3688C43.6125 25.7344 43.275 26.3813 43.1906 26.4375C42.7647 25.8868 42.3823 25.3038 42.0469 24.6938C41.9156 24.4688 42.0844 24.1031 42.1875 24.1031ZM45.075 13.5188C44.5688 13.575 39.5719 13.0781 36.7688 14.0813C35.6142 14.5339 34.5923 15.2702 33.7976 16.2222C33.0029 17.1743 32.4609 18.3113 32.2219 19.5281C32.0531 21.1031 31.9969 24.0188 32.4469 24.0188C32.8969 24.0188 36.8813 24.1031 38.3906 24.1594C39.9 24.2156 40.725 24.1594 40.8656 24.3281C41.6751 25.4209 42.4291 26.5535 43.125 27.7219C43.125 27.9188 42.9094 28.9313 42.7969 28.7906C42.6844 28.65 40.6875 25.2 40.5469 25.3406C40.4063 25.4813 40.0406 26.0156 40.2938 26.3813C40.5469 26.7469 42.6844 29.9438 42.6563 30.1313C42.6281 30.3188 42.375 31.0688 42.2344 30.8344C42.0938 30.6 39.675 26.5125 39.5344 26.5688C39.3938 26.625 39 27.1594 39.1969 27.5063C39.3938 27.8531 42.0094 31.4625 42.0094 31.6594C42.0094 31.8563 42.0094 33.3375 41.8125 33.2813C41.6156 33.225 39.2813 28.8188 38.8875 28.8188C38.4938 28.8188 38.3531 29.5781 38.5781 29.8594C38.8031 30.1406 41.5875 34.2094 41.5875 34.2938C41.5875 34.3781 40.9406 34.7719 40.7156 34.6031C40.4906 34.4344 38.2219 30.1125 37.9969 30.1125C37.7719 30.1125 37.1531 30.3938 37.35 30.7031C37.5469 31.0125 39.7313 34.5188 39.6188 34.5469C39.4767 34.6024 39.3217 34.6161 39.1722 34.5862C39.0226 34.5563 38.8848 34.4841 38.775 34.3781C38.4656 34.0406 36.7031 30.9563 36.4781 31.0125C36.2531 31.0688 35.8313 31.5469 36.0563 31.8281C36.2813 32.1094 38.25 34.5469 38.025 34.6406C37.5458 34.7014 37.0594 34.6728 36.5906 34.5563C36.5063 34.4438 35.3813 32.2594 35.1281 32.2594C34.875 32.2594 34.5375 32.6438 34.6781 32.8969C35.0216 33.4222 35.3346 33.9669 35.6156 34.5281C35.5313 34.5281 33.0094 34.3875 32.925 34.6969C32.8406 35.0063 33.0656 37.0875 32.925 37.0031C32.7844 36.9188 31.6594 34.6688 31.4906 34.6688C31.3219 34.6688 31.0125 35.3156 31.125 35.6063C31.2375 35.8969 33 37.9875 33 38.2125C33 38.4375 33.0563 40.0875 32.9438 39.8719C32.3819 38.7976 31.7557 37.7583 31.0688 36.7594C30.8738 37.0357 30.7572 37.3597 30.7313 37.6969C30.7875 37.8656 33.0375 41.0156 33.0938 41.2406C33.1823 41.9661 33.1823 42.6996 33.0938 43.425C32.9813 43.2563 30.5625 38.7375 30.3656 38.7375C30.1688 38.7375 30 39.675 30.1125 40.0313C30.225 40.3875 32.9813 44.5219 33.0094 44.7188C33.0375 44.9156 33.0656 46.0688 32.9531 45.9844C32.8406 45.9 29.8875 40.5094 29.7469 40.5938C29.562 40.9682 29.5028 41.3923 29.5781 41.8031C29.6625 42.1313 32.9531 47.1844 32.9813 47.2969C33.0119 48.0497 32.9648 48.8037 32.8406 49.5469C32.7281 49.4344 29.4094 43.65 29.2125 43.6781C29.0156 43.7063 28.875 44.7188 29.0156 44.9719C29.1563 45.225 32.8969 50.5031 32.925 50.7844C32.9531 51.0656 33.0656 52.4344 32.925 52.3781C32.7844 52.3219 28.8469 45.8156 28.7063 45.8156C28.5656 45.8156 28.3781 46.7531 28.4344 46.9031C28.4906 47.0531 32.8125 53.6344 32.8125 53.8594C32.8125 54.0844 32.8125 54.2813 32.5313 54.2813C32.3915 54.3058 32.2481 54.2983 32.1116 54.2593C31.9752 54.2203 31.8494 54.1509 31.7438 54.0563C31.4906 53.8031 27.8719 47.85 27.6188 47.9062C27.3656 47.9625 27.3094 48.9188 27.3938 49.2281C27.4781 49.5375 31.3219 54.3094 31.1438 54.3656C30.9656 54.4219 25.9219 54.0563 25.5188 54.0563C25.2709 54.054 25.0246 54.0161 24.7875 53.9438C24.7875 53.9438 24.9563 53.7188 24.4781 53.2125C24 52.7062 23.3063 51.8906 22.9969 52.0875C22.6875 52.2844 22.8 52.6219 22.9969 52.8188C23.1938 53.0156 23.9344 53.6063 23.8313 53.7563C23.0769 53.8376 22.3138 53.761 21.5906 53.5312C21.5063 53.3344 21.4781 45.2813 21.4219 42.4688C21.3656 39.6563 21.225 35.6531 20.6063 35.2313C19.9875 34.8094 15.4688 34.6875 15.2156 34.4063C14.9625 34.125 14.4281 25.2563 14.7656 25.2C15.1031 25.1438 19.4531 25.3125 20.1563 24.8625C20.4993 24.613 20.7584 24.2651 20.8991 23.8649C21.0397 23.4647 21.0553 23.0311 20.9438 22.6219C20.8313 21.6094 20.1563 14.5875 21.45 11.8969C23.1069 8.70042 25.9145 6.25135 29.3063 5.04376C33.3 3.47813 38.2406 3.59063 41.6625 4.03126C45.0844 4.47188 45.4125 5.10001 45.4781 6.73126C45.5438 8.3625 45.5906 13.4625 45.0844 13.5188H45.075ZM21.9844 25.0313C21.7875 25.0313 21.8156 25.875 21.8156 26.1844C21.8156 26.4938 19.9875 26.2969 19.5375 26.2688C19.0875 26.2406 18.6563 26.3625 18.7313 26.7188C18.7313 26.8594 18.7313 27.1969 18.9 27.2813C19.0688 27.3656 22.5469 27.3938 22.8844 27.3938C23.2219 27.3938 23.1375 25.65 23.0813 25.2563C23.025 24.8625 22.1813 25.0031 21.9844 25.0313ZM27.1875 8.57813C25.7088 9.4323 24.4653 10.6403 23.5688 12.0938C22.7475 13.3182 22.2804 14.7457 22.2188 16.2188C22.2188 17.3438 22.3781 18.0938 22.5844 18.1781C22.7906 18.2625 23.1188 18.1781 23.3719 18.1781C23.625 18.1781 23.3719 14.9531 24.825 12.4031C25.2285 11.6202 25.7915 10.9304 26.4778 10.3782C27.164 9.82599 27.9582 9.42359 28.8094 9.19688C29.175 9.19688 29.1188 8.63438 29.0344 8.25938C28.95 7.88438 28.125 8.1375 27.1875 8.57813ZM33.9094 14.0625C33.272 14.1189 32.6717 14.3861 32.2031 14.8219C31.5329 15.6289 30.9835 16.5289 30.5719 17.4938C30.4031 18.0281 30.4781 18.7781 30.7688 18.8906C30.9015 18.9333 31.0427 18.9429 31.18 18.9183C31.3173 18.8938 31.4465 18.836 31.5563 18.75C31.7531 18.6094 31.7531 17.4938 32.2031 16.5375C32.6942 15.8104 33.3707 15.2278 34.1625 14.85C34.3031 14.7 34.1344 14.0625 33.9094 14.0625ZM40.4719 5.13751C39.975 5.04376 39.7406 6.00938 39.9938 6.07501C40.8007 6.26185 41.6177 6.4027 42.4406 6.49688C42.9188 6.55313 43.2188 6.49688 43.3781 6.83438C43.5375 7.17188 43.3781 9.94688 43.5469 10.0875C43.7156 10.2281 44.5875 10.5094 44.5875 9.77813C44.5875 9.04688 44.7 6.02813 44.3625 5.76563C44.025 5.50313 41.0438 5.21251 40.4531 5.10001L40.4719 5.13751ZM24.375 50.2406C24.0375 50.325 23.925 50.55 24.2344 51.1781C24.9064 52.1795 25.7322 53.0685 26.6813 53.8125C26.9625 53.8125 27.3844 53.475 27.1031 53.1094C26.8219 52.7438 24.8156 50.1281 24.375 50.2406ZM26.3156 49.3031C26.2031 49.2188 25.6969 49.7813 25.8094 49.9781C25.8094 49.9781 28.1438 53.0063 28.4531 53.4281C28.7625 53.85 29.0625 53.9344 29.3906 53.7656C29.7188 53.5969 29.2781 53.0906 29.0531 52.6406C28.2031 51.4865 27.2957 50.3757 26.3344 49.3125L26.3156 49.3031Z" fill="#1D1D1B"/>
</svg>
