<svg width="60" height="60" viewBox="0 0 60 60" fill="none" xmlns="http://www.w3.org/2000/svg">
<g clip-path="url(#clip0)">
<path d="M56.6014 11.8467C55.7577 5.25608 53.4327 2.62171 45.9327 2.34983C38.4327 2.07796 21.7733 1.72171 11.7045 2.34983C1.6358 2.97796 2.70455 9.15608 2.70455 11.0592C2.70455 11.0592 2.02017 34.2061 2.02017 38.4248C2.02017 42.6436 1.75767 45.1186 3.12642 49.8717C4.49517 54.6248 7.02642 59.528 12.9889 59.8373C18.9514 60.1467 43.9264 60.3155 49.9546 59.6873C55.9827 59.0592 56.6014 54.1936 57.6045 49.2905C58.6077 44.3873 57.4452 18.4373 56.6014 11.8467ZM55.2327 28.4123C55.306 28.9779 55.331 29.5487 55.3077 30.1186C55.3077 30.1186 52.5608 27.3717 52.1952 27.7373C52.0831 27.8978 52.0059 28.08 51.9688 28.2722C51.9317 28.4644 51.9353 28.6623 51.9795 28.853C51.9795 28.853 55.2514 31.0092 55.2514 31.2717C55.2514 31.5342 55.1483 32.753 55.1483 32.753C54.2767 31.9943 53.3593 31.2898 52.4014 30.6436C52.2421 30.6905 52.0358 31.3842 52.0827 31.5811C52.1296 31.778 55.3077 33.6248 55.3077 33.9436V36.8498C55.3077 36.8498 52.6171 34.1592 52.4014 34.103C52.1858 34.0467 52.0827 35.2092 52.0827 35.2092C53.1569 36.1212 54.1803 37.0914 55.1483 38.1155C55.2268 38.7969 55.2613 39.4827 55.2514 40.1686C55.2514 40.1686 52.4952 37.5342 52.3358 37.5342C52.1764 37.5342 52.0171 38.7998 52.0171 38.7998C53.0733 39.6755 54.0751 40.6147 55.017 41.6123C55.1262 42.3791 55.1638 43.1543 55.1296 43.928C54.1858 43.1377 53.2 42.3991 52.1764 41.7155C52.0336 42.2174 52.0499 42.7513 52.2233 43.2436C53.2698 43.9607 54.2746 44.737 55.2327 45.5686C55.2889 45.8311 55.1296 47.8842 55.1296 47.8842C54.2583 47.0788 53.3411 46.3244 52.3827 45.6248C52.1764 45.6248 52.0639 46.5623 52.0639 46.5623C52.0639 46.5623 55.1296 49.1967 55.1296 49.3748C54.9633 49.8759 54.7692 50.3673 54.5483 50.8467C54.5483 50.8467 51.7358 48.0342 51.5389 48.0342C51.342 48.0342 50.8545 48.503 50.8545 48.6623C50.8545 48.8217 53.7514 51.4748 53.6014 51.7748C53.4514 52.0748 53.2827 52.6186 53.0671 52.6186C52.8514 52.6186 50.3295 50.1905 50.1702 50.1905C50.0108 50.1905 49.4296 51.128 49.4296 51.128C50.3179 51.8734 51.1484 52.6851 51.9139 53.5561C51.7546 53.6686 50.592 54.1936 50.592 54.1936C49.7903 53.4561 48.945 52.7674 48.0608 52.1311C47.8452 52.1311 47.3764 52.8248 47.3764 52.8248L49.3264 54.6998C48.8295 54.8709 48.318 54.9964 47.7983 55.0748C47.5827 55.0186 45.7358 53.4905 45.3702 53.3311C45.0046 53.1717 44.0014 53.6498 44.0014 53.6498C44.0014 53.6498 45.8764 55.2248 45.6327 55.3842C45.3889 55.5436 34.0264 55.9186 27.2764 55.8061C20.5264 55.6936 11.2452 55.4311 8.8733 54.3061C6.50142 53.1811 3.97017 50.1905 3.74517 44.1811C3.52017 38.1717 4.1108 14.3311 4.1108 14.3311C4.05455 12.4561 4.00767 7.57171 5.74205 5.94046C7.47642 4.30921 10.9827 3.56858 17.5264 3.51233C24.0702 3.45608 40.8327 3.77483 45.792 3.93421C50.7514 4.09358 53.4889 5.74358 54.0702 8.55608C54.6925 13.2508 55.0462 17.9773 55.1296 22.7123C54.9702 22.6186 52.4952 20.7436 52.2795 20.7436C52.0639 20.7436 51.7546 21.8498 51.9608 21.9623C53.1073 22.7066 54.1837 23.5539 55.1764 24.4936C55.286 25.2666 55.3299 26.0475 55.3077 26.828C55.3077 26.828 52.5702 24.0155 52.3545 24.1373C52.1389 24.2592 52.1483 25.5623 52.1483 25.5623C53.2315 26.451 54.2614 27.4026 55.2327 28.4123ZM50.5452 19.0373C50.6202 15.1186 50.1702 11.6405 47.8077 9.79358C45.4452 7.94671 28.392 8.55608 23.1139 8.63108C17.8358 8.70608 12.7171 8.78108 11.142 10.1592C10.6795 10.5292 10.3062 10.9986 10.0498 11.5325C9.79339 12.0665 9.66044 12.6513 9.6608 13.2436C9.5108 15.2967 8.55455 41.6686 8.97642 45.7842C9.3983 49.8998 11.0389 50.5842 14.6014 50.6873C18.1639 50.7905 40.6077 51.2686 44.292 51.0623C47.9764 50.8561 48.9795 49.478 49.917 46.8905C50.8545 44.303 50.4889 22.9186 50.5358 19.0186L50.5452 19.0373ZM48.4264 46.2905C47.7983 47.8655 47.0014 49.103 43.8889 49.403C40.7764 49.703 22.2702 49.403 17.7889 49.2436C13.3077 49.0842 12.1639 48.1842 12.1639 48.1842C12.1639 48.1842 12.3233 27.878 12.4827 22.6092C12.642 17.3405 12.267 13.1123 13.0077 12.6905C13.7483 12.2686 19.1764 11.753 29.517 11.6873C39.8577 11.6217 45.9327 11.903 46.8702 12.3061C47.8077 12.7092 48.9889 14.1811 48.9889 20.8467C48.9889 27.5123 49.0639 44.7061 48.4264 46.2905ZM42.8952 12.953C38.0389 13.6936 39.2483 18.3905 40.9358 19.5155C42.6233 20.6405 46.7389 20.7811 47.1608 17.453C47.5827 14.1248 45.5577 12.5498 42.8952 12.953ZM45.5764 16.1686C45.3139 17.9686 43.7014 18.1748 42.6233 18.0436C41.5452 17.9123 39.3046 14.9873 43.1577 13.9842C43.4699 13.9076 43.7962 13.9087 44.108 13.9873C44.4197 14.0659 44.7075 14.2197 44.9461 14.4352C45.1847 14.6507 45.3669 14.9213 45.4768 15.2235C45.5867 15.5257 45.6209 15.8502 45.5764 16.1686ZM27.0139 16.3842C9.82017 19.3936 13.7295 36.4748 17.1045 41.0686C20.4795 45.6623 30.3889 45.4467 35.8545 43.1217C41.3202 40.7967 44.9764 35.6217 42.5014 25.928C40.0264 16.2342 31.0545 15.6811 27.0139 16.3842ZM37.9827 39.7467C32.9202 43.3842 25.4858 43.703 21.9514 41.9592C18.417 40.2155 14.9389 36.3342 15.7264 29.8842C16.5139 23.4342 20.6858 18.5498 27.1171 17.8561C30.7452 17.4717 37.5608 17.8561 39.8858 23.6123C42.2108 29.3686 43.0452 36.1092 37.9827 39.7467ZM27.0139 21.3905C18.8389 23.453 18.6327 28.4123 19.317 33.6811C20.0014 38.9498 29.1795 40.1123 34.0264 38.003C38.8733 35.8936 40.5139 32.5186 39.2014 27.5123C37.8889 22.5061 31.7952 20.1905 27.0139 21.3905ZM30.8671 37.328C26.1233 37.8623 22.7483 36.9061 21.5858 34.1686C20.4233 31.4311 22.0077 26.6686 27.9139 25.1498C31.542 24.2123 36.5108 25.6186 37.7202 29.3686C38.9296 33.1186 35.6202 36.7936 30.8671 37.3186V37.328Z" fill="#1D1D1B"/>
</g>
<defs>
<clipPath id="clip0">
<rect width="60" height="60" fill="white"/>
</clipPath>
</defs>
</svg>
