<svg width="60" height="60" viewBox="0 0 60 60" fill="none" xmlns="http://www.w3.org/2000/svg">
<path d="M52.3969 6.80626C51.5429 5.58594 50.4551 4.54735 49.1966 3.75073C47.9381 2.95411 46.534 2.41533 45.0656 2.16563C43.125 1.94063 41.25 3.14063 38.8125 5.62501C35.9689 8.49686 33.2718 11.51 30.7312 14.6531C29.9437 15.9375 28.7062 16.875 29.0625 19.275C29.4187 21.675 30.6375 23.025 32.2875 24.2906C33.9375 25.5563 37.1156 26.6438 37.9125 27.1688C38.3209 27.5197 38.6137 27.9859 38.7526 28.5062C38.8914 29.0265 38.8698 29.5766 38.6906 30.0844C38.3906 31.3594 36.075 33.9094 34.1625 35.25C32.25 36.5906 31.0969 37.125 29.7844 36.75C28.4719 36.375 27.3281 35.3625 24.8906 32.8125C22.4531 30.2625 20.475 28.5844 18.4969 28.2094C16.5187 27.8344 13.4437 30.525 10.6312 33.9375C7.81874 37.35 4.52812 41.8313 4.46249 42.7313C4.66586 44.8211 5.0549 46.8886 5.62499 48.9094C5.92499 49.7719 8.58749 51.9844 8.58749 51.9844C8.16902 52.2102 7.78925 52.5014 7.46249 52.8469C7.48775 53.9961 7.64823 55.1383 7.94062 56.25C8.12812 57.0375 9.81562 57.8625 10.4437 57.825C11.0719 57.7875 13.7437 54.9375 13.7437 54.9375C16.7453 55.4592 19.801 55.5979 22.8375 55.35C28.5937 55.0125 31.5187 52.2094 37.5844 47.4188C43.2002 42.8827 47.77 37.1872 50.9812 30.7219C54.1219 24.6188 55.5094 19.4719 55.5469 16.4625C55.415 13.0135 54.3242 9.66955 52.3969 6.80626ZM49.2187 13.8469C49.6687 14.2219 54.0094 17.5125 54.0844 17.8875C54.1594 18.2625 54.5344 19.7625 53.9344 19.4625C53.3344 19.1625 49.8562 15.525 49.1062 15.9C48.3562 16.275 48.6187 16.6125 48.9937 16.8375C49.3687 17.0625 53.4844 20.2406 53.5594 20.5875C53.6344 20.9344 53.3719 21.8625 53.1094 21.525C52.8469 21.1875 48.6937 17.8125 48.3187 17.8125C47.9437 17.8125 47.5031 18.1125 47.9812 18.5625C48.4594 19.0125 52.8844 22.1906 52.9594 22.6031C53.0344 23.0156 52.8094 23.7656 52.5094 23.6906C52.2094 23.6156 48.2062 20.2031 47.8687 20.625C47.5312 21.0469 47.3531 21.2625 47.6437 21.5625C47.9344 21.8625 51.9562 24.4875 52.0687 24.7406C52.1812 24.9938 51.7687 26.2781 51.4312 25.9781C51.0937 25.6781 47.5406 22.9125 47.2031 23.025C46.8656 23.1375 46.8281 23.8875 47.2031 24.1875C48.4881 25.0396 49.7244 25.963 50.9062 26.9531C50.9062 27.2156 50.5687 28.0781 50.3062 27.8906C50.0437 27.7031 46.7156 24.8906 46.3031 25.0781C45.8906 25.2656 45.8156 25.9031 46.1156 26.0156C47.425 26.7748 48.6782 27.627 49.8656 28.5656C49.9406 28.8281 49.5656 29.9063 49.3031 29.6438C49.0406 29.3813 45.825 27.0281 45.4125 27.1406C45.3329 27.1621 45.2603 27.2038 45.2016 27.2617C45.1429 27.3196 45.1002 27.3916 45.0776 27.4708C45.0549 27.5501 45.0532 27.6338 45.0724 27.7139C45.0917 27.7941 45.1313 27.8678 45.1875 27.9281C45.375 28.1906 48.7031 30.2438 48.6281 30.4688C48.5531 30.6938 48.1781 31.7438 47.9156 31.5563C47.6531 31.3688 43.7625 28.6781 43.425 28.8281C43.0875 28.9781 42.8625 29.6063 43.125 29.7188C43.3875 29.8313 47.5125 32.2313 47.4375 32.5313C47.3625 32.8313 46.8 33.5438 46.65 33.3938C46.5 33.2438 43.125 30.9375 42.8156 30.9844C42.5062 31.0313 42 31.6219 42.3375 31.8469C43.5903 32.6301 44.7926 33.4912 45.9375 34.425C45.9375 34.6125 45.4125 35.7375 45.225 35.55C45.0375 35.3625 41.6719 32.4469 41.3719 32.5219C41.0719 32.5969 40.8094 32.8594 41.0719 33.2344C41.3344 33.6094 44.5125 36.0469 44.4375 36.3C44.3625 36.5531 43.875 37.65 43.5 37.4625C43.125 37.275 40.0594 34.425 39.75 34.575C39.4406 34.725 39.075 35.175 39.4125 35.4375C39.75 35.7 43.1625 37.95 42.8156 38.25C42.4687 38.55 42.45 39.2531 42 38.9906C41.55 38.7281 38.8125 36.375 38.4 36.45C37.9875 36.525 37.3594 36.9375 37.7719 37.2C38.1844 37.4625 41.625 39.5156 41.2875 40.0125C40.95 40.5094 40.875 41.0625 40.6125 40.875C40.35 40.6875 37.2469 37.6219 36.8625 37.8469C36.4781 38.0719 36.075 38.1469 36.2625 38.5219C36.45 38.8969 40.0125 41.3344 39.8906 41.5875C39.7687 41.8406 39.4781 42.525 39.1031 42.375C38.7281 42.225 35.475 39.1875 35.2125 39.3C34.95 39.4125 34.65 39.8625 34.7625 40.05C34.875 40.2375 38.2781 42.8625 38.2406 43.2C38.2031 43.5375 37.575 44.5406 37.2375 44.3531C36.9 44.1656 33.375 40.9875 32.8594 41.0625C32.3437 41.1375 32.2969 41.5125 32.4469 41.775C32.5969 42.0375 36.45 44.5875 36.2625 44.9531C36.075 45.3188 35.6625 45.7781 35.475 45.6281C35.2875 45.4781 31.5844 42.3 31.2469 42.375C30.9094 42.45 30.1594 42.6375 30.5719 42.975C30.9844 43.3125 34.875 45.7875 34.7625 46.1156C34.65 46.4438 33.675 47.4281 33.1969 47.3531C32.7187 47.2781 29.1094 43.7531 28.5094 43.7906C28.4031 43.7967 28.3003 43.8305 28.2111 43.8887C28.122 43.9468 28.0496 44.0273 28.0012 44.1222C27.9529 44.217 27.9302 44.3228 27.9355 44.4291C27.9407 44.5355 27.9738 44.6385 28.0312 44.7281C28.2187 44.9156 32.2969 47.4656 31.9969 47.8031C31.8807 47.9609 31.7277 48.0877 31.5512 48.1727C31.3747 48.2577 31.1801 48.2982 30.9844 48.2906C30.6094 48.2906 26.7937 44.7656 26.2969 44.8781C25.8 44.9906 25.5469 45.5906 25.7344 45.8156C25.9219 46.0406 29.925 48.6281 29.8875 48.8813C29.85 49.1344 29.3625 49.3688 28.95 49.3313C28.5375 49.2938 24.7406 45.7313 24.1781 45.9375C23.6156 46.1438 23.625 46.4625 23.8406 46.6875C24.0562 46.9125 28.4437 49.4531 28.2281 49.9031C28.017 50.1472 27.7496 50.3363 27.4491 50.4539C27.1485 50.5715 26.8238 50.6141 26.5031 50.5781C26.2406 50.3906 22.0125 47.4 21.675 47.3625C21.3375 47.325 20.7375 47.775 21 48.0375C21.2625 48.3 25.3406 50.5031 25.1906 50.85C24.9436 51.085 24.6466 51.2611 24.3219 51.365C23.9972 51.4689 23.6532 51.4979 23.3156 51.45C22.6406 51.3375 19.5656 48.2344 19.2656 48.2719C18.9656 48.3094 18.4125 48.5625 18.7125 48.9C19.0125 49.2375 22.4625 51.6375 22.0781 51.7125C21.5742 51.8448 21.0446 51.8448 20.5406 51.7125C20.2406 51.5625 16.7906 48.75 16.425 48.9C16.0594 49.05 15.6 49.4625 16.125 49.8375C16.65 50.2125 19.2281 51.5625 19.0031 51.7875C17.8781 51.9934 16.725 51.9934 15.6 51.7875C14.8875 51.6 14.4375 50.925 13.8094 51.4875C13.1812 52.05 12.1219 54.0656 11.2969 54.3C10.4719 54.5344 10.6594 54.7875 10.0594 54.4875C9.45937 54.1875 8.34374 53.775 8.75624 53.4C9.16874 53.025 11.2219 51.3094 10.9969 50.7844C10.7719 50.2594 7.66874 47.0344 7.18124 46.3313C6.37499 45.0844 5.38124 43.7438 5.49374 43.2656C5.60624 42.7875 10.6969 35.925 11.8594 34.3875C13.0219 32.85 16.95 28.9688 18.3375 29.3438C19.725 29.7188 22.1531 31.6594 24.8437 34.5C27.5344 37.3406 28.6594 38.1375 30.4687 37.875C32.2781 37.6125 32.8687 37.6875 35.4469 35.6625C38.025 33.6375 40.65 30.7594 41.3625 29.1C42.075 27.4406 42.375 26.1 41.625 25.35C40.5628 24.4216 39.3123 23.734 37.9594 23.3344C36.3941 22.9623 34.891 22.3655 33.4969 21.5625C31.9312 20.625 30.4312 18.6469 30.4312 17.5969C30.4312 16.5469 31.9687 14.9344 34.3969 11.9719C37.0031 8.98205 39.8707 6.23053 42.9656 3.75001C43.9031 3.18751 45.8906 3.26251 48.0187 4.46251C50.1469 5.66251 50.7187 6.33751 51.0562 6.81563C51.3937 7.29376 51.5437 7.67813 51.2437 7.52813C50.9437 7.37813 49.6875 5.75626 49.2187 6.20626C48.75 6.65626 48.6187 6.76876 49.1437 7.14376C50.3967 7.91624 51.5628 8.82146 52.6219 9.84376C53.0658 10.4183 53.3474 11.1014 53.4375 11.8219C53.2875 11.5594 50.3344 8.49376 49.8469 8.53126C49.3594 8.56876 49.0594 8.83126 49.3594 9.09376C49.6594 9.35626 53.85 13.0219 54.15 13.3969C54.45 13.7719 54.2625 14.7844 54.075 14.5594C53.8875 14.3344 50.8594 10.8094 49.9969 10.6219C49.1344 10.4344 49.0594 10.7719 49.0594 11.0719C49.0594 11.3719 53.6625 14.9344 54 15.375C54.3375 15.8156 54.675 16.9125 54.225 16.9125C53.775 16.9125 49.7719 12.9094 49.4344 12.9469C49.3354 12.9606 49.2428 13.0039 49.1688 13.071C49.0947 13.1382 49.0427 13.2261 49.0194 13.3233C48.9961 13.4205 49.0027 13.5225 49.0382 13.6159C49.0738 13.7093 49.1367 13.7898 49.2187 13.8469ZM11.1937 39.0281C10.8187 39.0281 8.31562 41.8406 7.97812 42.7031C7.84958 43.1261 7.81319 43.5718 7.87141 44.01C7.92963 44.4483 8.0811 44.869 8.31562 45.2438C8.69062 45.6938 9.17812 46.0688 9.50624 45.7688C9.83437 45.4688 9.80624 45.1688 9.35624 44.6438C9.1464 44.3763 9.03236 44.0462 9.03236 43.7063C9.03236 43.3663 9.1464 43.0362 9.35624 42.7688C9.99509 41.7266 10.7778 40.7797 11.6812 39.9563C12.1875 39.5531 11.5687 39.0281 11.1937 39.0281ZM34.8844 14.8219C33.7846 15.7546 32.8358 16.852 32.0719 18.075C31.6969 19.5375 33.825 21.0281 34.4625 21.1031C35.1 21.1781 35.1375 20.6906 35.025 20.2406C34.9125 19.7906 33.7875 18.975 33.45 18.3656C33.1125 17.7563 35.1375 16.0031 35.5125 15.4781C35.8875 14.9531 35.5594 14.4094 34.8844 14.8219Z" fill="#1D1D1B"/>
</svg>
