<svg width="60" height="60" viewBox="0 0 60 60" fill="none" xmlns="http://www.w3.org/2000/svg">
<path d="M56.3344 15.6375C51.3563 2.4375 32.6156 -0.140625 26.9719 1.29375C23.3344 2.23125 11.2875 3.10312 5.40938 14.2031C-0.468742 25.3031 -1.37812 41.3906 9.23438 50.925C19.8469 60.4594 35.1469 62.175 47.4844 52.9313C59.8219 43.6875 61.3031 28.8375 56.3344 15.6375ZM56.1188 34.1156C56.0438 34.3312 55.1156 36.4125 55.1156 36.4125C55.1156 36.4125 50.6625 30.7875 50.4281 30.7875C50.1938 30.7875 49.9219 31.6406 50.0625 31.8563C50.2031 32.0719 54.6844 37.5 54.6844 37.5L53.4375 39.4969C53.4375 39.4969 49.5656 34.2563 49.275 34.1906C48.9844 34.125 48.4125 34.6219 48.6281 34.8375C48.8438 35.0531 52.9313 40.0688 52.7156 40.4625C52.1728 41.1369 51.5738 41.7642 50.925 42.3375C50.925 42.3375 47.6531 37.5 47.4375 37.4156C47.2219 37.3312 46.4344 38.0625 46.65 38.4938C46.8656 38.925 50.0906 43.3688 49.875 43.6594C49.6594 43.95 48.0844 45.5906 48.0844 45.5906C48.0844 45.5906 45.4313 41.0719 45.1406 41.0063C44.85 40.9406 44.0719 41.8594 44.2875 42.0094C44.5031 42.1594 47.5125 46.3125 47.3719 46.5938C46.815 47.1237 46.2127 47.6036 45.5719 48.0281L42.9188 43.9406L41.9156 44.8781C41.9156 44.8781 44.2875 48.675 44.2125 49.0406C44.1375 49.4063 42.1313 50.475 42.1313 50.475L39.7688 46.3125C39.7688 46.3125 38.7563 46.8094 38.7563 47.025C38.7563 47.2406 41.1281 51.3281 41.1281 51.3281L39.375 52.1156C39.375 52.1156 37.2188 47.8125 37.0031 47.7469C36.7875 47.6813 36 47.5969 36.1406 48.1781C36.2813 48.7594 38.0813 52.6969 38.0813 52.6969L36.2906 53.2687C36.2906 53.2687 34.35 49.3219 34.1344 49.1813C33.9188 49.0406 32.9906 49.3969 33.1313 49.6125C33.2719 49.8281 35.2875 53.9156 35.0063 53.9813C34.725 54.0469 32.4938 54.2719 32.4938 54.2719C31.9422 52.9469 31.3162 51.6543 30.6188 50.4C30.4031 50.325 29.6813 50.5406 29.7563 50.8969C29.8313 51.2531 31.0875 54.375 31.0875 54.375H29.1469C28.6769 53.3683 28.1511 52.3887 27.5719 51.4406C27.2813 51.15 26.3531 51.6563 26.5688 51.8719C26.7844 52.0875 27.8625 54.525 27.6469 54.5906C21.401 54.8083 15.3034 52.6586 10.575 48.5719C2.68126 41.8219 1.46251 31.425 2.54063 25.1344C3.61876 18.8438 8.63438 8.22188 18.2438 4.85625C21.6281 3.66563 27.7875 0.69375 37.6875 3.13125C44.1112 4.69617 49.7244 8.59199 53.4375 14.0625C54.0887 15.3166 54.5951 16.6408 54.9469 18.0094C54.9469 18.0094 51.6469 13.7719 51.1406 13.7062C50.6344 13.6406 50.3531 14.4187 50.5688 14.775C50.7844 15.1313 54.9469 19.2281 55.2563 19.725C55.623 20.876 55.9111 22.0506 56.1188 23.2406C56.1188 23.2406 52.3688 18.3656 51.9563 18.2906C51.5438 18.2156 51.2438 19.0125 51.3844 19.2281C51.525 19.4438 56.2594 24.6094 56.3344 24.8531C56.4094 25.0969 56.7656 28.0781 56.7656 28.0781C56.7656 28.0781 52.2469 22.7062 51.9563 22.6313C51.6656 22.5562 51.4594 23.6344 51.4594 23.6344C51.4594 23.6344 56.4094 29.0906 56.475 29.3719C56.5406 29.6531 56.6156 32.4562 56.6156 32.4562C56.6156 32.4562 51.9281 26.7188 51.525 26.7188C51.1219 26.7188 51.0938 27.9375 51.0938 27.9375C51.0938 27.9375 56.1938 33.9 56.1188 34.1156ZM14.0625 13.3875C15.5785 11.3608 17.6076 9.77505 19.9406 8.79375C19.9406 8.79375 19.5094 7.85625 19.2188 7.79063C18.9281 7.725 16.35 8.65312 13.2 12.0281C10.05 15.4031 9.23438 17.8687 9.39376 18.2625C9.54535 18.4938 9.76386 18.6733 10.0202 18.7772C10.2764 18.881 10.5583 18.9043 10.8281 18.8438C11.25 18.6281 11.5781 16.7625 14.0625 13.3875ZM40.1906 15.4688C38.55 15.6094 16.0969 25.8656 13.1531 27.6562C10.2094 29.4469 10.7906 31.4062 11.5031 32.3906C12.2156 33.375 19.2469 35.1094 19.2469 35.1094C19.7531 35.475 23.7656 43.8656 24.4125 43.9313C25.0594 43.9969 29.4375 37.9781 29.8688 37.8375C30.3 37.6969 32.5219 38.625 34.0313 39.1313C35.5406 39.6375 38.9719 41.1375 40.1906 40.1344C41.4094 39.1313 43.4906 24.1406 43.9969 19.9781C44.5031 15.8156 41.8406 15.3281 40.1906 15.4688ZM41.5594 18.5531C41.1764 19.0883 40.7599 19.5987 40.3125 20.0813L40.125 18.8438L41.4094 17.55C41.4998 17.8771 41.5502 18.2139 41.5594 18.5531ZM12.4969 30.1031C12.8438 28.8 15.8719 27.8063 19.1719 26.0156C22.4719 24.225 39.9094 16.7625 40.4063 16.6875C40.9031 16.6125 40.5563 17.2594 40.5563 17.2594C40.5563 17.2594 20.2594 33.75 19.8938 33.75C19.5281 33.75 11.8594 32.5406 12.5063 30.1031H12.4969ZM39.5438 20.9906C39.4406 21.1313 37.8656 22.8656 37.8656 22.8656C37.6797 22.207 37.5572 21.532 37.5 20.85C37.5 20.85 39.0844 19.4156 39.1313 19.5563C39.3351 20.0135 39.477 20.4959 39.5531 20.9906H39.5438ZM37.2469 24.15L35.9531 25.8188L35.0156 22.9031C35.0156 22.9031 36.5625 21.5625 36.5625 21.7125C36.5625 21.8625 37.2563 24.15 37.2563 24.15H37.2469ZM30.5531 26.6812C30.6938 26.5875 31.7438 25.4813 31.8375 25.6313C32.3797 26.967 32.8277 28.3391 33.1781 29.7375C33.0844 29.9344 32.2406 30.9844 32.2406 30.9844L30.5531 26.6812ZM31.6031 31.9406L30.6656 32.9437L28.7906 28.1625C28.9313 28.0219 29.7281 27.3469 29.7281 27.3469L31.6031 31.9406ZM32.6531 24.675C32.85 24.525 33.8063 23.625 33.8063 23.625L34.9969 26.925L33.9469 28.3594L32.6531 24.675ZM24.375 42.3656C24.375 42.3656 20.8031 34.8094 20.85 34.6875L22.5 33.5156C22.5 33.5156 25.5563 40.8375 25.4625 41.1656C25.3688 41.4938 24.375 42.3656 24.375 42.3656ZM26.3531 40.3125C26.3531 40.3125 23.3438 32.9906 23.4375 32.7094C23.7442 32.3158 24.115 31.9767 24.5344 31.7063C24.675 31.7063 27.45 38.8312 27.4031 39.0187C27.0884 39.4774 26.7372 39.9101 26.3531 40.3125ZM27.9281 38.1094C27.8344 37.9219 25.2563 31.3688 25.3969 31.125C25.6496 30.8483 25.9399 30.6085 26.2594 30.4125L28.5563 37.1531C28.5563 37.1531 28.0219 38.25 27.9281 38.0625V38.1094ZM28.9313 35.1469C28.9313 35.1469 27.0563 29.9344 27.1688 29.5969C27.4068 29.2613 27.7305 28.9958 28.1063 28.8281C28.8932 30.3831 29.5486 32.0013 30.0656 33.6656C29.717 34.1664 29.3382 34.6454 28.9313 35.1V35.1469ZM38.6906 38.8969C37.6875 39.4031 30.0844 36.4594 30.0844 36.1688C30.0844 35.8781 42.0563 19.4156 42.4875 18.9844C42.7406 18.75 39.6938 38.3531 38.6906 38.85V38.8969Z" fill="#1D1D1B"/>
</svg>
