<svg width="60" height="60" viewBox="0 0 60 60" fill="none" xmlns="http://www.w3.org/2000/svg">
<path d="M53.8313 18.4688C54.1721 17.9007 54.425 17.2844 54.5813 16.6406C54.6563 15.9656 54.6563 15.1781 54.3188 14.8781C53.9813 14.5781 52.6406 15.0656 51.5531 15.4031C50.4814 15.6853 49.3955 15.9107 48.3 16.0781C48.3 16.0781 46.95 12.075 44.775 10.5C42.6 8.92501 39.7219 8.88751 37.275 9.45001C34.697 10.0376 32.3356 11.3368 30.4594 13.2C29.0813 14.8406 27.8813 18.1406 27.4688 19.4438C27.0563 20.7469 26.25 23.0813 25.3125 23.2594C24.375 23.4375 22.6219 22.7813 21.1219 21.8438C18.5581 20.0288 16.1097 18.0562 13.7906 15.9375C11.8406 14.1375 9.10314 11.0344 8.16564 11.25C7.22814 11.4656 6.21564 14.6906 6.21564 17.0156C6.21564 19.3406 8.28751 21.5625 8.28751 21.5625C7.56206 23.7801 7.72333 26.1925 8.73751 28.2938C9.34719 29.3665 10.2097 30.274 11.25 30.9375C11.0405 32.0879 11.1309 33.2728 11.5125 34.3781C11.8875 35.5031 13.8375 36.9281 13.8375 36.9281C12.9323 37.5878 11.9163 38.08 10.8375 38.3813C8.96251 38.9063 5.53126 38.3813 5.15626 38.3813C4.78126 38.3813 5.15626 43.1344 5.15626 43.8094C5.18896 44.1454 5.29909 44.4693 5.47802 44.7555C5.65695 45.0418 5.8998 45.2828 6.18751 45.4594C10.0364 47.5177 14.1319 49.0771 18.375 50.1C23.7634 51.5013 29.4735 50.9568 34.5 48.5625C38.55 46.8094 42.9375 41.4188 45.6938 37.0781C47.6698 33.7447 49.2433 30.1886 50.3813 26.4844C51.2688 25.9808 52.1208 25.417 52.9313 24.7969C53.5538 24.2872 54.0624 23.6526 54.4242 22.9339C54.7859 22.2153 54.9928 21.4286 55.0313 20.625C54.9861 20.2035 54.8566 19.7953 54.6505 19.4249C54.4443 19.0544 54.1657 18.7293 53.8313 18.4688ZM50.4656 20.9813C50.9156 20.9813 52.8281 19.8938 53.0531 20.0438C53.2781 20.1938 52.4906 21.6938 51.1031 22.5188C50.3007 23.094 49.3825 23.4875 48.4125 23.6719C48.15 23.5969 47.1938 21.7313 47.025 21.7969C46.8563 21.8625 46.4063 22.1906 46.5188 22.4438C46.6313 22.6969 47.7281 24.15 47.6156 24.375C47.5031 24.6 47.4469 24.7125 47.2781 24.5719C47.1094 24.4313 46.0688 22.2188 45.7875 22.1625C45.5063 22.1063 45.1125 22.725 45.2813 23.0063C45.8581 23.7427 46.3665 24.5304 46.8 25.3594C46.8 25.6406 46.4625 26.9344 46.35 26.7375C45.7537 25.597 45.0868 24.4949 44.3531 23.4375C44.2151 23.5542 44.1018 23.6971 44.0197 23.8581C43.9376 24.0191 43.8884 24.1948 43.875 24.375C43.9594 24.6 45.9563 27.525 45.9563 27.7781C45.9563 28.0313 45.3656 29.2875 45.1688 29.0625C44.9719 28.8375 43.2375 25.1063 43.0688 25.1063C42.9 25.1063 42.4219 25.725 42.45 25.8938C42.4781 26.0625 44.6906 29.7938 44.7469 30.075C44.8031 30.3563 44.2688 31.95 44.0719 31.8469C43.875 31.7438 42.0844 27.1875 41.8594 27.1875C41.6344 27.1875 41.2969 27.8344 41.3813 28.125C41.4656 28.4156 43.575 32.4281 43.6031 32.7563C43.6313 33.0844 43.2656 33.6938 43.1531 33.6C43.0406 33.5063 40.7625 27.8813 40.5656 27.9094C40.3688 27.9375 40.0313 28.4906 40.2281 29.1375C40.425 29.7844 42.7313 33.9938 42.7594 34.3313C42.7875 34.6688 42.1969 35.4563 42.1125 35.2688C42.0281 35.0813 39.6094 29.7938 39.375 29.85C39.2109 30.0055 39.0933 30.2037 39.0354 30.4222C38.9774 30.6407 38.9814 30.8711 39.0469 31.0875C39.2344 31.425 41.7094 35.775 41.7094 35.9156C41.7094 36.0563 41.0625 37.0688 40.8938 36.9844C40.725 36.9 38.6625 31.9313 38.4375 31.9594C38.3392 32.0037 38.2508 32.0673 38.1775 32.1464C38.1042 32.2255 38.0475 32.3185 38.0108 32.4199C37.9741 32.5213 37.9581 32.629 37.9637 32.7367C37.9694 32.8444 37.9966 32.9499 38.0438 33.0469C38.2969 33.6094 40.4813 37.35 40.3969 37.5938C40.3125 37.8375 39.7219 38.6906 39.6094 38.5313C39.4969 38.3719 37.2844 33.2531 37.0313 33.2531C36.7781 33.2531 36.1594 33.8156 36.3844 34.2656C36.6094 34.7156 39.1031 39.15 39 39.2625C38.8969 39.375 38.0156 40.5281 37.875 40.4438C37.7344 40.3594 35.3438 35.2219 35.0625 35.3063C34.7813 35.3906 34.4438 35.7844 34.6406 36.15C34.8375 36.5156 37.3125 40.8375 37.2563 41.0063C37.2 41.175 36.5813 41.7094 36.4125 41.5125C36.2438 41.3156 33.9469 36.7125 33.6938 36.7125C33.4406 36.7125 32.9063 37.4438 33.075 37.7156C34.0748 39.2273 34.9918 40.7921 35.8219 42.4031C35.7094 42.6 34.8844 43.3406 34.7531 43.1906C34.6219 43.0406 32.5688 38.8125 32.1469 38.8406C31.725 38.8688 31.4156 39.5156 31.6125 39.7781C31.8094 40.0406 33.9188 43.5281 33.9188 43.5281C33.9188 43.5281 32.9063 44.1469 32.7375 43.95C32.5688 43.7531 30.8625 39.8531 30.6844 39.8531C30.5063 39.8531 29.7469 40.3031 30.0938 40.7906C30.4406 41.2781 32.1188 44.2125 31.9688 44.3531C31.8188 44.4938 31.2656 44.7469 31.0969 44.55C30.9281 44.3531 29.2031 40.3125 29.0625 40.3125C28.9219 40.3125 28.2188 40.5938 28.3875 40.875C28.5563 41.1563 30.3469 44.8031 30.2625 44.8594C30.1781 44.9156 29.0625 45.2531 28.9219 45.1125C28.7813 44.9719 27.2625 41.7188 27.0469 41.7188C26.9155 41.7473 26.7984 41.8212 26.7161 41.9275C26.6338 42.0338 26.5916 42.1657 26.5969 42.3C26.6531 42.4969 28.2563 45.3094 28.1719 45.3656C27.7513 45.4833 27.3142 45.5308 26.8781 45.5063C26.7656 45.4219 25.3313 42.0563 25.1063 42C24.8813 41.9438 24.3844 42.3844 24.4969 42.6938C24.9753 43.6228 25.3949 44.5809 25.7531 45.5625C25.6125 45.6188 24.6656 45.675 24.525 45.4781C24.3844 45.2813 23.2313 42.5531 22.9781 42.4969C22.725 42.4406 22.275 42.5813 22.4438 43.0031C22.6125 43.425 23.9344 45.8156 23.7375 45.8156C23.2765 45.8322 22.8149 45.804 22.3594 45.7313C22.2469 45.6469 21.0938 42.8625 20.8969 42.8063C20.7 42.75 20.0531 42.6938 20.1656 43.0594C20.2781 43.425 21.5156 45.5625 21.2906 45.5625C20.7371 45.5348 20.1934 45.4045 19.6875 45.1781C19.4906 44.9813 18.45 42.4219 18.225 42.3656C18 42.3094 17.5219 42.5906 17.5781 42.9281C17.6344 43.2656 18.6469 45.0938 18.3938 45.0375C18.1406 44.9813 16.9875 44.7844 16.9594 44.6438C16.5824 43.7391 16.1309 42.8673 15.6094 42.0375C15.4125 41.925 14.7469 42.0375 14.9156 42.3656C15.2406 42.9613 15.5014 43.5899 15.6938 44.2406C13.9915 43.7727 12.3372 43.1449 10.7531 42.3656C8.54064 41.25 6.56251 39.5063 6.82501 39.45C7.08751 39.3938 9.91876 39.6188 11.85 38.8875C13.2309 38.4508 14.5654 37.8793 15.8344 37.1813C15.9469 36.9563 15.6094 36.45 15.525 36.4219C15.4406 36.3938 13.125 35.625 12.5813 33.9469C12.0375 32.2688 12.4688 30.3844 12.1594 30.1969C11.516 29.8456 10.9491 29.3694 10.4919 28.7964C10.0347 28.2233 9.69646 27.5648 9.49689 26.8594C8.70939 24.4125 9.58126 21.1031 9.41251 20.8781C9.24376 20.6531 8.97189 20.1938 8.70001 20.2688C8.42814 20.3438 7.50001 18.3938 7.50001 16.6031C7.48062 15.1522 7.80171 13.7169 8.43751 12.4125C8.62501 12.4125 13.6406 17.2781 16.2938 19.5188C18.9469 21.7594 22.0594 24.0844 23.8969 24.3844C25.7344 24.6844 26.475 24.7594 27.3375 23.0063C28.2 21.2531 29.0625 16.9406 30.4031 15C31.2724 13.7434 32.3834 12.6725 33.6711 11.85C34.9588 11.0275 36.3975 10.4698 37.9031 10.2094C41.3813 9.64688 43.9969 10.6219 45.4031 12.5719C46.8094 14.5219 46.8656 17.0625 47.2031 17.2594C47.5406 17.4563 49.0781 17.4094 50.8313 16.7719C51.6472 16.4241 52.4908 16.145 53.3531 15.9375C53.0577 16.7936 52.5083 17.5392 51.7781 18.075C50.6156 19.0125 49.7906 19.7156 49.7906 20.1656C49.7906 20.6156 50.0156 20.9813 50.4656 20.9813ZM9.75001 17.7C9.21564 17.2781 9.44064 16.2656 9.58126 15.5344C9.72189 14.8031 8.56876 14.9719 8.37189 15.7875C8.26622 16.2279 8.27264 16.6878 8.39056 17.125C8.50848 17.5623 8.73413 17.9631 9.04689 18.2906C9.69376 18.8438 10.2938 18.8156 10.4719 18.675C10.65 18.5344 10.3125 18.1219 9.75001 17.7ZM25.4906 25.6969C25.0688 25.6406 24.0375 26.2031 22.9406 25.6406C21.8438 25.0781 20.775 23.7656 20.2969 23.925C19.9688 24.0469 19.6313 24.4875 20.4375 25.2469C21.4365 26.1034 22.6946 26.5988 24.0094 26.6531C25.2375 26.6531 25.9125 25.7531 25.4906 25.6969ZM33.1875 15.7875C32.9063 15.7031 31.725 16.4906 31.1625 17.475C30.6 18.4594 29.7563 20.3344 30.4031 20.7C30.8344 20.9438 31.05 20.6438 31.3406 19.575C31.6703 18.6109 32.1411 17.7011 32.7375 16.875C33.1031 16.3781 33.4688 15.8719 33.1875 15.7875Z" fill="#1D1D1B"/>
</svg>
