<svg width="60" height="60" viewBox="0 0 60 60" fill="none" xmlns="http://www.w3.org/2000/svg">
<path d="M55.2469 24.9562C54.375 16.1062 51.3562 7.33124 41.25 3.08437C31.1437 -1.16251 20.625 1.74374 15.6187 4.49999C12.332 6.40713 9.59076 9.12733 7.65842 12.3993C5.72607 15.6714 4.6675 19.3853 4.58436 23.1844C4.15311 32.8125 10.0969 41.7937 10.0969 41.7937C10.0969 41.7937 6.77811 54.8156 6.77811 55.2375C6.77811 55.6594 10.0969 59.0625 10.5937 59.0625C11.0906 59.0625 24.375 52.6969 24.375 52.6969C28.301 53.0416 32.2562 52.8269 36.1219 52.0594C42.3469 50.7844 47.3719 47.8781 50.7 43.2844C54.0281 38.6906 56.1 33.7969 55.2469 24.9562ZM51.075 37.9031C49.0219 42.7875 41.8312 46.8 41.2125 47.0812C40.5937 47.3625 38.8594 47.8781 38.8594 47.8781C38.6136 47.3509 38.2983 46.859 37.9219 46.4156C37.6875 46.3219 36.9844 46.7531 37.0687 46.9406C37.1531 47.1281 37.7344 47.8781 37.5469 48.1125C37.3594 48.3469 36.0844 48.4031 36.0844 48.4031C35.7502 47.6677 35.3385 46.97 34.8562 46.3219C34.575 46.1812 33.7687 46.4625 33.8625 46.7062C34.2536 47.3829 34.586 48.0917 34.8562 48.825C34.2277 49.0036 33.5783 49.0982 32.925 49.1062C32.5529 48.2375 32.1108 47.4003 31.6031 46.6031C31.3594 46.4625 30.3281 46.7062 30.3281 46.9406C30.6755 47.7778 31.0699 48.5947 31.5094 49.3875C30.9743 49.4594 30.432 49.4594 29.8969 49.3875C29.4527 48.4525 28.9322 47.5557 28.3406 46.7062C28.0594 46.5562 27.2156 46.8 27.2156 47.0344C27.2156 47.2687 28.1062 49.4812 28.1062 49.4812L26.7375 49.2937L25.0406 46.6031C25.0406 46.6031 24.1031 46.6031 24.1969 46.8937C24.2906 47.1844 25.275 49.2937 25.1344 49.4344C24.9937 49.575 24.7594 49.8187 24.5719 49.725C24.3844 49.6312 22.7812 47.55 22.6312 47.5031C22.4812 47.4562 21.8344 47.6906 21.8812 47.9719C21.9281 48.2531 23.5781 49.725 23.3906 50.0062C23.2031 50.2875 21.9281 51.1406 21.7406 50.9437C21.5531 50.7469 19.95 48.5437 19.7625 48.45C19.575 48.3562 18.675 48.9656 18.7687 49.1062C18.8625 49.2469 20.2687 51.5625 20.2687 51.5625L18.75 52.0312C18.2275 51.3361 17.6607 50.6753 17.0531 50.0531C16.8562 50.0531 16.1156 50.5687 16.2 50.7562C16.2844 50.9437 17.8125 52.125 17.5312 52.3125C17.1537 52.5484 16.7588 52.7552 16.35 52.9312C16.35 52.9312 15.1687 51.6562 14.8875 51.6562C14.6062 51.6562 14.4656 52.0781 14.4656 52.2187C14.6832 52.6321 14.9341 53.0272 15.2156 53.4C15.2156 53.4 9.84374 55.8562 9.37499 55.575C8.90624 55.2937 8.53124 54.7219 8.64374 54.4594C8.75624 54.1969 11.8312 41.5781 11.8312 41.5781C11.8312 41.5781 6.02811 32.025 6.20624 24.525C6.38436 17.025 11.4469 8.67187 15.1969 5.91562C18.9469 3.15937 30.9375 1.03124 37.9125 3.00937C44.8875 4.98749 51.0375 11.7937 53.1281 19.2187C55.2187 26.6437 53.1281 33.0187 51.075 37.9031ZM28.3781 4.99687C22.2469 5.60624 17.9531 7.54687 14.1844 12.7781C10.4156 18.0094 8.94374 22.5 9.93749 29.0062C10.9312 35.5125 15.5625 41.4187 15.6937 41.6062C15.825 41.7937 12.225 50.2312 11.9437 50.7094C11.6625 51.1875 12.5625 51.7031 13.125 51.7031C13.6875 51.7031 23.4375 44.2031 23.7844 44.1094C25.645 44.4203 27.524 44.6082 29.4094 44.6719C33.6387 44.7814 37.846 44.0286 41.775 42.4594C46.4625 40.5844 50.9719 36.7031 51.4875 28.9594C52.0031 21.2156 50.025 15.75 44.6062 10.2094C39.1875 4.66874 34.5187 4.37812 28.3781 4.99687ZM46.5469 14.8594C51.1687 20.5687 50.9344 28.725 49.3594 33.1594C47.7844 37.5937 44.3531 40.6594 39.1687 42.075C33.9844 43.4906 29.5875 43.6781 27.8437 43.3031C26.1 42.9281 24.3094 42.5062 23.8781 42.5062C23.4469 42.5062 15.8625 48.0187 15.15 48.3562C15.0281 48.4125 17.7937 42.2625 17.7469 41.8406C17.7 41.4187 13.3594 36.0375 12.2719 32.175C10.9453 26.8414 11.4949 21.2137 13.8281 16.2375C16.5656 10.9031 24.6375 7.17187 30.2531 7.07812C33.386 7.02547 36.4883 7.70087 39.3158 9.05115C42.1432 10.4014 44.6186 12.3897 46.5469 14.8594ZM30.0844 22.1719C30.5062 21.5062 29.7 19.2469 27.3937 16.2281C25.0875 13.2094 22.8375 12.8625 21.8719 13.5844C20.9062 14.3062 17.3906 17.6906 17.9531 22.0219C18.5156 26.3531 24.0375 34.1062 28.05 38.4375C32.0625 42.7687 37.5844 41.175 39.8906 39.8531C40.8909 39.3121 41.755 38.5508 42.4177 37.6266C43.0803 36.7024 43.5242 35.6397 43.7156 34.5187C43.8094 32.8687 37.725 27.3469 37.3969 27.1594C37.0687 26.9719 33.4312 30.2719 33.0562 30.225C32.6812 30.1781 28.7625 23.9531 28.8094 23.6625C28.8562 23.3719 29.6531 22.8281 30.0844 22.1719ZM31.3969 31.7906C32.7187 32.7281 32.4844 32.9719 33.15 32.5969C33.8156 32.2219 36.5906 29.0062 37.1062 29.1937C37.6219 29.3812 42.4406 33.75 42.1875 34.3875C41.9344 35.025 41.1656 36.7031 40.9312 36.5625C40.6969 36.4219 39.2812 33.5812 38.4375 33.6844C37.5937 33.7875 37.7344 34.3875 37.8281 34.6219C37.9219 34.8562 39.8062 36.8906 39.6187 37.125C39.45 37.2889 39.239 37.4025 39.0094 37.4531C38.4323 36.5388 37.8064 35.6563 37.1344 34.8094C36.9937 34.8094 36.1031 35.1 36.1969 35.3812C36.2906 35.6625 37.9875 37.5 37.7062 37.7344C37.425 37.9687 36.8531 38.3062 36.7125 38.1187L34.8375 35.6156C34.8375 35.6156 33.6094 35.7094 33.7969 36.0375C33.9844 36.3656 35.2125 38.0719 34.9781 38.0719C34.7437 38.0719 32.7094 38.6812 28.8 34.95C24.8906 31.2187 19.7906 25.8937 19.425 21.9844C19.0594 18.075 21.4125 14.625 22.9687 14.8125C23.325 14.8125 28.6781 20.2312 27.8719 20.8969C27.0656 21.5625 25.0594 23.1094 25.8469 24.2906C26.6344 25.4719 30.0844 30.8531 31.3969 31.7906ZM22.575 16.6969C21.2531 17.1187 20.7 20.6156 20.7 21.1781C20.7 21.7406 22.4437 21.8344 22.6781 21.7875C22.9125 21.7406 22.6781 21.5531 22.6781 20.5687C22.6922 19.5779 22.9025 18.5997 23.2969 17.6906C23.5219 17.4 23.1562 16.5094 22.575 16.6969Z" fill="#1D1D1B"/>
</svg>
